<svg width="107" height="33" viewBox="0 0 107 33" fill="none" xmlns="http://www.w3.org/2000/svg">
<path d="M3.78643 15.1527C3.18589 15.1527 2.69223 15.112 2.30545 15.0305C1.91866 14.9593 1.60821 14.8524 1.37411 14.7099C1.15018 14.5572 0.992411 14.3689 0.900804 14.145C0.819375 13.9211 0.778661 13.6564 0.778661 13.3511C0.778661 13.2595 0.78375 13.1322 0.793929 12.9694C0.804107 12.7963 0.819375 12.5571 0.839732 12.2518C0.860089 11.9464 0.885536 11.5546 0.916072 11.0762C0.956786 10.5876 1.00768 9.97687 1.06875 9.24402C1.14 8.33812 1.19598 7.62053 1.2367 7.09125C1.27741 6.56196 1.30795 6.15482 1.3283 5.86982C1.34866 5.57464 1.35884 5.37107 1.35884 5.25911C1.36902 5.13696 1.37411 5.03518 1.37411 4.95375C1.37411 4.79089 1.37411 4.65857 1.37411 4.55678C1.38429 4.455 1.39446 4.37866 1.40464 4.32777C1.425 4.26669 1.45045 4.22598 1.48098 4.20562C1.5217 4.17509 1.57768 4.15982 1.64893 4.15982C2.24946 4.1191 2.75839 4.08857 3.17571 4.06821C3.60321 4.04785 3.97473 4.03768 4.29027 4.03768C5.06384 4.03768 5.72545 4.10384 6.27509 4.23616C6.83491 4.3583 7.28786 4.53643 7.63393 4.77053C7.98 5.00464 8.23447 5.29473 8.39732 5.6408C8.56018 5.98687 8.64161 6.37875 8.64161 6.81643C8.64161 7.06071 8.61616 7.31518 8.56527 7.57982C8.51438 7.83428 8.42786 8.07857 8.30572 8.31268C8.18357 8.54678 8.01563 8.75545 7.80188 8.93866C7.59831 9.1117 7.33875 9.23893 7.02322 9.32036C7.61357 9.50357 8.03089 9.80893 8.27518 10.2364C8.51947 10.6537 8.64161 11.1525 8.64161 11.7327C8.64161 12.2009 8.56527 12.6437 8.41259 13.061C8.25991 13.4681 7.99527 13.8295 7.61866 14.145C7.24205 14.4504 6.7433 14.6946 6.12241 14.8779C5.50152 15.0611 4.72286 15.1527 3.78643 15.1527ZM4.6567 10.4196C4.54473 10.4196 4.40732 10.4298 4.24447 10.4502C4.08161 10.4604 3.91366 10.4807 3.74063 10.5112L3.57268 12.9999C3.93911 13.1119 4.26991 13.1679 4.56509 13.1679C4.88063 13.1679 5.13509 13.1221 5.32848 13.0304C5.52188 12.9388 5.66947 12.8269 5.77125 12.6946C5.88322 12.5521 5.95447 12.3994 5.985 12.2365C6.02572 12.0635 6.04607 11.9057 6.04607 11.7632C6.04607 11.3866 5.9392 11.0711 5.72545 10.8166C5.52188 10.552 5.16563 10.4196 4.6567 10.4196ZM4.01545 6.22098C3.99509 6.48562 3.97473 6.79607 3.95438 7.15232C3.9442 7.50857 3.92384 7.89536 3.8933 8.31268C4.21902 8.39411 4.50911 8.43482 4.76357 8.43482C5.06893 8.43482 5.31322 8.3992 5.49643 8.32795C5.67964 8.2567 5.82214 8.16509 5.92393 8.05312C6.03589 7.94116 6.10714 7.81902 6.13768 7.68669C6.17839 7.55437 6.19875 7.42714 6.19875 7.305C6.19875 6.98946 6.09188 6.71973 5.87813 6.4958C5.67455 6.26169 5.3183 6.14464 4.80938 6.14464C4.69741 6.14464 4.57018 6.15482 4.42768 6.17518C4.29536 6.18536 4.15795 6.20062 4.01545 6.22098ZM13.2902 15.1527C12.5879 15.1527 12.0026 15.056 11.5344 14.8626C11.0764 14.659 10.7099 14.3842 10.4351 14.0381C10.1603 13.6921 9.96689 13.29 9.85493 12.832C9.74296 12.3637 9.68698 11.865 9.68698 11.3357C9.68698 10.725 9.75823 10.1296 9.90073 9.54937C10.0534 8.95902 10.3079 8.43482 10.6641 7.97678C11.0204 7.51875 11.4886 7.15232 12.0688 6.8775C12.6591 6.5925 13.392 6.45 14.2673 6.45C15.5498 6.45 16.4659 6.76553 17.0156 7.39661C17.5754 8.0175 17.8553 8.89286 17.8553 10.0227C17.8553 10.3382 17.8298 10.6894 17.7789 11.0762C17.7382 11.4528 17.6517 11.8294 17.5194 12.206C17.3972 12.5826 17.2242 12.949 17.0003 13.3053C16.7865 13.6615 16.5117 13.9771 16.1758 14.2519C15.8399 14.5267 15.4328 14.7455 14.9544 14.9084C14.4862 15.0713 13.9314 15.1527 13.2902 15.1527ZM14.0078 8.48062C13.621 8.48062 13.3106 8.58241 13.0764 8.78598C12.8525 8.97937 12.6795 9.21857 12.5573 9.50357C12.4454 9.77839 12.369 10.0736 12.3283 10.3891C12.2978 10.6945 12.2825 10.954 12.2825 11.1678C12.2825 11.8396 12.3894 12.3332 12.6031 12.6487C12.8169 12.9643 13.1222 13.1221 13.5192 13.1221C13.8755 13.1221 14.1656 13.0101 14.3895 12.7862C14.6236 12.5622 14.8017 12.2925 14.9239 11.977C15.0562 11.6614 15.1427 11.3306 15.1834 10.9846C15.2343 10.6385 15.2597 10.3484 15.2597 10.1143C15.2597 9.60536 15.1631 9.20839 14.9697 8.92339C14.7864 8.62821 14.4658 8.48062 14.0078 8.48062ZM22.4151 15.1527C21.7128 15.1527 21.1275 15.056 20.6593 14.8626C20.2013 14.659 19.8349 14.3842 19.56 14.0381C19.2852 13.6921 19.0918 13.29 18.9799 12.832C18.8679 12.3637 18.8119 11.865 18.8119 11.3357C18.8119 10.725 18.8832 10.1296 19.0257 9.54937C19.1783 8.95902 19.4328 8.43482 19.7891 7.97678C20.1453 7.51875 20.6135 7.15232 21.1937 6.8775C21.7841 6.5925 22.5169 6.45 23.3923 6.45C24.6748 6.45 25.5908 6.76553 26.1405 7.39661C26.7003 8.0175 26.9802 8.89286 26.9802 10.0227C26.9802 10.3382 26.9548 10.6894 26.9039 11.0762C26.8632 11.4528 26.7766 11.8294 26.6443 12.206C26.5222 12.5826 26.3491 12.949 26.1252 13.3053C25.9115 13.6615 25.6366 13.9771 25.3008 14.2519C24.9649 14.5267 24.5577 14.7455 24.0793 14.9084C23.6111 15.0713 23.0564 15.1527 22.4151 15.1527ZM23.1327 8.48062C22.7459 8.48062 22.4355 8.58241 22.2014 8.78598C21.9774 8.97937 21.8044 9.21857 21.6823 9.50357C21.5703 9.77839 21.494 10.0736 21.4533 10.3891C21.4227 10.6945 21.4074 10.954 21.4074 11.1678C21.4074 11.8396 21.5143 12.3332 21.7281 12.6487C21.9418 12.9643 22.2472 13.1221 22.6441 13.1221C23.0004 13.1221 23.2905 13.0101 23.5144 12.7862C23.7485 12.5622 23.9266 12.2925 24.0488 11.977C24.1811 11.6614 24.2676 11.3306 24.3083 10.9846C24.3592 10.6385 24.3847 10.3484 24.3847 10.1143C24.3847 9.60536 24.288 9.20839 24.0946 8.92339C23.9114 8.62821 23.5908 8.48062 23.1327 8.48062ZM35.3723 13.7633C35.3723 13.8142 35.3468 13.916 35.296 14.0687C35.2451 14.2213 35.1636 14.3791 35.0517 14.542C34.9397 14.7048 34.7972 14.8473 34.6242 14.9695C34.4613 15.0916 34.2628 15.1527 34.0287 15.1527C33.7539 15.1527 33.4791 15.0611 33.2043 14.8779C32.9396 14.6946 32.675 14.4453 32.4103 14.1297C32.1457 13.8142 31.876 13.4427 31.6011 13.0152C31.3365 12.5775 31.0668 12.1042 30.7919 11.5953C30.7512 12.1347 30.7105 12.664 30.6698 13.1831C30.6291 13.7022 30.5884 14.2061 30.5476 14.6946C30.5375 14.8168 30.512 14.8982 30.4713 14.9389C30.4306 14.9796 30.3441 15 30.2118 15H29.6621C29.3466 15 29.087 14.9695 28.8835 14.9084C28.6799 14.8371 28.5221 14.7404 28.4101 14.6183C28.2982 14.4962 28.2168 14.3435 28.1659 14.1603C28.1251 13.9669 28.1048 13.748 28.1048 13.5037C28.1048 13.3816 28.1099 13.2544 28.1201 13.1221C28.1302 12.9897 28.1455 12.8014 28.1659 12.5571C28.1862 12.3129 28.2117 11.9922 28.2422 11.5953C28.2829 11.1983 28.3287 10.6741 28.3796 10.0227C28.4305 9.37125 28.4865 8.57223 28.5476 7.62562C28.6188 6.66884 28.6951 5.50848 28.7766 4.14455C28.7868 3.92062 28.8122 3.7883 28.8529 3.74759C28.8835 3.71705 28.9649 3.70178 29.0972 3.70178H29.6926C30.0082 3.70178 30.2677 3.73741 30.4713 3.80866C30.6749 3.87991 30.8377 3.97661 30.9599 4.09875C31.082 4.22089 31.1635 4.36339 31.2042 4.52625C31.2551 4.68911 31.2805 4.85705 31.2805 5.03009C31.2805 5.13187 31.2703 5.30491 31.25 5.54919C31.2398 5.7833 31.2245 6.07339 31.2042 6.41946C31.1838 6.75536 31.1533 7.13705 31.1126 7.56455C31.082 7.99205 31.0515 8.43991 31.021 8.90812L33.4638 6.67902C33.5554 6.59759 33.6368 6.54161 33.7081 6.51107C33.7895 6.48053 33.8506 6.46527 33.8913 6.46527C34.0033 6.46527 34.1254 6.53652 34.2577 6.67902C34.3901 6.82152 34.5122 6.98946 34.6242 7.18286C34.7463 7.36607 34.843 7.55946 34.9143 7.76303C34.9957 7.95643 35.0364 8.1142 35.0364 8.23634C35.0364 8.53152 34.7972 8.84196 34.3188 9.16768C33.8506 9.49339 33.1381 9.85982 32.1813 10.267C32.6088 10.7454 33.016 11.183 33.4027 11.58C33.7895 11.977 34.1254 12.3281 34.4104 12.6335C34.7056 12.9388 34.9397 13.1882 35.1127 13.3816C35.2858 13.575 35.3723 13.7022 35.3723 13.7633ZM40.6123 4.00714C41.5691 4.00714 42.2765 4.2158 42.7345 4.63312C43.2027 5.05044 43.4368 5.595 43.4368 6.26678C43.4368 6.83678 43.2791 7.27446 42.9635 7.57982C42.648 7.875 42.195 8.02259 41.6047 8.02259C41.4215 8.02259 41.3044 8.00732 41.2535 7.97678C41.2026 7.93607 41.1772 7.85973 41.1772 7.74777C41.1772 7.64598 41.167 7.51366 41.1466 7.3508C41.1365 7.18794 41.1008 7.03018 41.0398 6.8775C40.9787 6.72482 40.882 6.59759 40.7497 6.4958C40.6174 6.38384 40.4341 6.32786 40.2 6.32786C39.8743 6.32786 39.5842 6.42964 39.3298 6.63321C39.0753 6.82661 38.9481 7.08107 38.9481 7.39661C38.9481 7.67143 39.0499 7.89536 39.2534 8.06839C39.4672 8.24143 39.7318 8.40428 40.0474 8.55696C40.3629 8.69946 40.7039 8.84705 41.0703 8.99973C41.4469 9.15241 41.793 9.35598 42.1085 9.61045C42.4241 9.85473 42.6836 10.1652 42.8872 10.5418C43.1009 10.9082 43.2078 11.3764 43.2078 11.9464C43.2078 12.3943 43.1315 12.8167 42.9788 13.2137C42.8363 13.6004 42.6174 13.9414 42.3223 14.2366C42.0373 14.5216 41.6708 14.7455 41.223 14.9084C40.7853 15.0713 40.2713 15.1527 39.6809 15.1527C39.172 15.1527 38.6987 15.0967 38.261 14.9847C37.8335 14.8728 37.4569 14.7354 37.1312 14.5725C36.8157 14.3995 36.5663 14.2162 36.3831 14.0229C36.1999 13.8193 36.1082 13.6361 36.1082 13.4732C36.1082 12.8014 36.1439 12.3179 36.2151 12.0228C36.2966 11.7276 36.4391 11.58 36.6426 11.58C36.7851 11.58 36.9327 11.6411 37.0854 11.7632C37.2482 11.8854 37.4315 12.0228 37.635 12.1754C37.8386 12.3281 38.0727 12.4655 38.3374 12.5877C38.6122 12.7098 38.9277 12.7709 39.284 12.7709C39.4265 12.7709 39.5639 12.7607 39.6962 12.7404C39.8387 12.7098 39.9608 12.664 40.0626 12.6029C40.1746 12.5419 40.2611 12.4604 40.3222 12.3587C40.3934 12.2569 40.4291 12.1347 40.4291 11.9922C40.4291 11.7378 40.3324 11.5342 40.139 11.3815C39.9456 11.2288 39.7013 11.0914 39.4061 10.9693C39.1109 10.837 38.7903 10.7046 38.4442 10.5723C38.1083 10.4298 37.7928 10.2415 37.4976 10.0074C37.2024 9.76312 36.9582 9.45268 36.7648 9.07607C36.5714 8.69946 36.4747 8.21598 36.4747 7.62562C36.4747 6.96402 36.5968 6.40419 36.8411 5.94616C37.0956 5.48812 37.4162 5.11661 37.803 4.83161C38.1999 4.53643 38.6427 4.32777 39.1313 4.20562C39.63 4.0733 40.1237 4.00714 40.6123 4.00714ZM49.59 13.1068C49.6205 12.7709 49.6511 12.4197 49.6816 12.0533C49.7223 11.6869 49.7529 11.3357 49.7732 10.9998C49.8038 10.6639 49.8292 10.3637 49.8496 10.099C49.8699 9.83437 49.8801 9.64098 49.8801 9.51884C49.8801 9.2542 49.8139 9.02009 49.6816 8.81652C49.5595 8.60277 49.3152 8.49589 48.9488 8.49589C48.4602 8.49589 48.0632 8.72491 47.7579 9.18295C47.4627 9.64098 47.2897 10.2517 47.2388 11.0151C47.2184 11.2288 47.193 11.5291 47.1624 11.9159C47.1319 12.2925 47.1013 12.6793 47.0708 13.0762C47.0403 13.463 47.0097 13.8142 46.9792 14.1297C46.9588 14.4351 46.9487 14.6234 46.9487 14.6946C46.9487 14.8168 46.9232 14.8982 46.8723 14.9389C46.8316 14.9796 46.7451 15 46.6128 15H46.0631C45.7476 15 45.488 14.9695 45.2845 14.9084C45.0911 14.8371 44.9333 14.7404 44.8112 14.6183C44.6992 14.4962 44.6178 14.3486 44.5669 14.1755C44.5262 13.9923 44.5058 13.7837 44.5058 13.5496C44.5058 13.3256 44.5211 13.0152 44.5516 12.6182C44.5923 12.2111 44.6432 11.6563 44.7043 10.954C44.7654 10.2415 44.8366 9.33562 44.918 8.23634C44.9995 7.13705 45.086 5.77312 45.1776 4.14455C45.1878 3.92062 45.2132 3.7883 45.2539 3.74759C45.2845 3.71705 45.3659 3.70178 45.4982 3.70178H46.0937C46.399 3.70178 46.6535 3.73741 46.8571 3.80866C47.0606 3.87991 47.2235 3.97661 47.3456 4.09875C47.4678 4.22089 47.5543 4.36339 47.6052 4.52625C47.6561 4.67893 47.6815 4.84178 47.6815 5.01482C47.6815 5.19803 47.6612 5.53902 47.6205 6.03777C47.5899 6.53652 47.5492 7.12178 47.4983 7.79357C47.8037 7.28464 48.1396 6.93348 48.506 6.74009C48.8826 6.5467 49.3559 6.45 49.9259 6.45C50.3534 6.45 50.7249 6.4958 51.0405 6.58741C51.356 6.67902 51.6155 6.83678 51.8191 7.06071C52.0329 7.27446 52.1906 7.55946 52.2924 7.91571C52.3942 8.26178 52.4451 8.69437 52.4451 9.21348C52.4451 9.37634 52.4298 9.65625 52.3993 10.0532C52.3688 10.4502 52.328 10.9031 52.2772 11.4121C52.2364 11.921 52.1906 12.4554 52.1397 13.0152C52.099 13.5648 52.0634 14.0687 52.0329 14.5267C52.0227 14.6387 52.0125 14.7252 52.0023 14.7862C51.9922 14.8473 51.9718 14.8931 51.9413 14.9237C51.9209 14.9542 51.8853 14.9746 51.8344 14.9847C51.7835 14.9949 51.7122 15 51.6206 15H51.1321C50.8063 15 50.5417 14.9695 50.3381 14.9084C50.1346 14.8473 49.9768 14.7608 49.8648 14.6488C49.7529 14.5369 49.6714 14.3995 49.6205 14.2366C49.5798 14.0636 49.5595 13.8702 49.5595 13.6564C49.5595 13.5546 49.5595 13.4579 49.5595 13.3663C49.5697 13.2747 49.5798 13.1882 49.59 13.1068ZM57.3369 15.1527C56.889 15.1527 56.4412 15.0967 55.9933 14.9847C55.5556 14.8728 55.1587 14.6794 54.8024 14.4046C54.4564 14.1297 54.1714 13.7633 53.9474 13.3053C53.7235 12.8472 53.6115 12.2721 53.6115 11.58C53.6115 11.3255 53.6319 11.0202 53.6726 10.6639C53.7133 10.3077 53.7897 9.94125 53.9016 9.56464C54.0238 9.18803 54.1866 8.81652 54.3902 8.45009C54.6039 8.07348 54.8788 7.73759 55.2147 7.44241C55.5506 7.14723 55.9577 6.90803 56.4361 6.72482C56.9145 6.54161 57.4845 6.45 58.1461 6.45C58.6754 6.45 59.1232 6.51107 59.4897 6.63321C59.8561 6.75536 60.1513 6.9233 60.3752 7.13705C60.5991 7.34062 60.762 7.57982 60.8638 7.85464C60.9656 8.12946 61.0164 8.42464 61.0164 8.74018C61.0164 9.20839 60.9198 9.60536 60.7264 9.93107C60.5431 10.2568 60.2989 10.5316 59.9935 10.7555C59.6983 10.9693 59.3675 11.1372 59.0011 11.2594C58.6347 11.3815 58.2733 11.4782 57.9171 11.5495C57.5608 11.6105 57.23 11.6512 56.9247 11.6716C56.6295 11.6818 56.4005 11.6869 56.2376 11.6869C56.2376 11.8803 56.2631 12.0737 56.3139 12.2671C56.375 12.4503 56.4615 12.6131 56.5735 12.7556C56.6855 12.8981 56.8331 13.0152 57.0163 13.1068C57.1995 13.1984 57.4234 13.2442 57.6881 13.2442C57.9527 13.2442 58.1563 13.2035 58.2988 13.1221C58.4514 13.0304 58.5736 12.9337 58.6652 12.832C58.7568 12.72 58.8331 12.6233 58.8942 12.5419C58.9655 12.4503 59.0571 12.4045 59.169 12.4045C59.2199 12.4045 59.3064 12.4197 59.4286 12.4503C59.5609 12.4706 59.6932 12.5215 59.8256 12.6029C59.9579 12.6844 60.0749 12.7963 60.1767 12.9388C60.2785 13.0813 60.3294 13.2646 60.3294 13.4885C60.3294 13.7837 60.2378 14.0381 60.0546 14.2519C59.8714 14.4656 59.6322 14.6387 59.337 14.771C59.052 14.9033 58.7314 15 58.3751 15.0611C58.0189 15.1221 57.6728 15.1527 57.3369 15.1527ZM57.627 8.48062C57.4031 8.48062 57.2097 8.54678 57.0468 8.67911C56.8941 8.80125 56.7618 8.95902 56.6498 9.15241C56.5481 9.3458 56.4666 9.55955 56.4056 9.79366C56.3547 10.0278 56.3139 10.2517 56.2834 10.4654C56.9145 10.4553 57.4234 10.3484 57.8102 10.1448C58.2072 9.94125 58.4056 9.65116 58.4056 9.27455C58.4056 9.07098 58.3395 8.88777 58.2072 8.72491C58.085 8.56205 57.8916 8.48062 57.627 8.48062ZM63.7071 15.1374C63.076 15.1374 62.623 14.9695 62.3482 14.6336C62.0734 14.2977 61.936 13.7429 61.936 12.9694C61.936 12.8472 61.9411 12.6946 61.9512 12.5113C61.9716 12.3281 61.992 12.094 62.0123 11.809C62.0429 11.5138 62.0785 11.1525 62.1192 10.725C62.1599 10.2975 62.2006 9.77839 62.2413 9.16768C62.2922 8.55696 62.3431 7.83937 62.394 7.01491C62.4551 6.19044 62.5162 5.23366 62.5772 4.14455C62.5874 3.92062 62.6129 3.7883 62.6536 3.74759C62.6841 3.71705 62.7655 3.70178 62.8979 3.70178H63.4933C63.7987 3.70178 64.0531 3.73741 64.2567 3.80866C64.4603 3.87991 64.6231 3.97661 64.7453 4.09875C64.8674 4.22089 64.9539 4.36339 65.0048 4.52625C65.0557 4.67893 65.0812 4.84178 65.0812 5.01482C65.0812 5.21839 65.0659 5.51357 65.0354 5.90036C65.015 6.27696 64.9845 6.70446 64.9437 7.18286C64.903 7.66125 64.8623 8.16 64.8216 8.67911C64.7809 9.19821 64.7402 9.69696 64.6995 10.1754C64.6587 10.6436 64.6231 11.066 64.5926 11.4426C64.5722 11.8192 64.5621 12.1042 64.5621 12.2976C64.5621 12.5622 64.6079 12.7505 64.6995 12.8625C64.8012 12.9745 64.9081 13.0559 65.0201 13.1068C65.1321 13.1475 65.2338 13.178 65.3254 13.1984C65.4272 13.2086 65.4781 13.2391 65.4781 13.29C65.4781 13.5139 65.4527 13.7379 65.4018 13.9618C65.3509 14.1755 65.2593 14.374 65.127 14.5572C64.9946 14.7303 64.8114 14.8728 64.5773 14.9847C64.3534 15.0865 64.0633 15.1374 63.7071 15.1374ZM69.7036 9.71732C69.6833 10.0227 69.6578 10.3535 69.6273 10.7097C69.5967 11.066 69.5662 11.4273 69.5357 11.7937C69.5051 12.15 69.4746 12.5012 69.4441 12.8472C69.4237 13.1933 69.4034 13.4987 69.383 13.7633C69.3626 14.0279 69.3423 14.2468 69.3219 14.4198C69.3117 14.5929 69.3067 14.6845 69.3067 14.6946C69.2965 14.8168 69.271 14.8982 69.2303 14.9389C69.1896 14.9796 69.1031 15 68.9708 15H68.4211C67.8715 15 67.4847 14.8728 67.2608 14.6183C67.047 14.3537 66.9401 13.9618 66.9401 13.4427C66.9401 13.3816 66.9452 13.2289 66.9554 12.9846C66.9758 12.7404 66.9961 12.4503 67.0165 12.1144C67.047 11.7683 67.0775 11.3866 67.1081 10.9693C67.1386 10.552 67.1692 10.1346 67.1997 9.71732H66.4821C66.3701 9.71732 66.3142 9.66134 66.3142 9.54937C66.3142 9.46795 66.3192 9.35089 66.3294 9.19821C66.3396 9.03536 66.3498 8.87759 66.36 8.72491C66.3701 8.60277 66.3854 8.48062 66.4058 8.35848C66.4363 8.22616 66.4821 8.1142 66.5432 8.02259C66.6144 7.9208 66.7162 7.83937 66.8485 7.7783C66.9809 7.70705 67.1539 7.66634 67.3676 7.65616L67.4287 7.04544C67.4898 6.38384 67.6119 5.82911 67.7951 5.38125C67.9885 4.93339 68.2379 4.57714 68.5433 4.3125C68.8486 4.03768 69.21 3.84428 69.6273 3.73232C70.0548 3.61018 70.5281 3.5491 71.0472 3.5491C71.5561 3.5491 71.9887 3.59491 72.345 3.68652C72.7114 3.77812 73.0066 3.90535 73.2305 4.06821C73.4544 4.23107 73.6173 4.42446 73.7191 4.64839C73.8209 4.87232 73.8717 5.11152 73.8717 5.36598C73.8717 5.89527 73.7038 6.27187 73.3679 6.4958C73.0422 6.71973 72.5994 6.83169 72.0396 6.83169C71.8869 6.83169 71.78 6.82152 71.719 6.80116C71.6681 6.77062 71.6426 6.70955 71.6426 6.61794C71.6426 6.28205 71.6121 6.01741 71.551 5.82402C71.49 5.63062 71.322 5.53393 71.0472 5.53393C70.8436 5.53393 70.6706 5.595 70.5281 5.71714C70.3856 5.83928 70.2685 6.00214 70.1769 6.20571C70.0853 6.39911 70.0141 6.62303 69.9632 6.8775C69.9225 7.13196 69.8868 7.39152 69.8563 7.65616H71.6121C71.775 7.65616 71.8564 7.72741 71.8564 7.86991L71.7953 8.69437C71.775 8.99973 71.6884 9.24911 71.5358 9.4425C71.3933 9.62571 71.093 9.71732 70.635 9.71732H69.7036ZM73.8326 12.2823C74.2601 12.2823 74.5655 12.3892 74.7487 12.6029C74.9319 12.8065 75.0235 13.0966 75.0235 13.4732C75.0235 13.6259 75.0032 13.804 74.9624 14.0076C74.9217 14.201 74.8454 14.3842 74.7334 14.5572C74.6316 14.7201 74.4841 14.8626 74.2907 14.9847C74.0973 15.0967 73.8428 15.1527 73.5273 15.1527C73.0591 15.1527 72.7435 15.0356 72.5807 14.8015C72.4178 14.5572 72.3364 14.257 72.3364 13.9007C72.3364 13.6971 72.3618 13.4987 72.4127 13.3053C72.4636 13.1119 72.545 12.9388 72.657 12.7862C72.769 12.6335 72.9216 12.5113 73.115 12.4197C73.3084 12.3281 73.5476 12.2823 73.8326 12.2823ZM80.3058 13.1221C80.601 13.1221 80.8555 13.0813 81.0692 12.9999C81.2932 12.9185 81.4866 12.8269 81.6494 12.7251C81.8123 12.6233 81.9497 12.5317 82.0616 12.4503C82.1736 12.3688 82.2754 12.3281 82.367 12.3281C82.6011 12.3281 82.7182 12.4808 82.7182 12.7862C82.7182 12.8574 82.7029 12.9592 82.6724 13.0915C82.6418 13.2137 82.6011 13.346 82.5502 13.4885C82.4993 13.6208 82.4433 13.748 82.3823 13.8702C82.3314 13.9923 82.2805 14.0839 82.2296 14.145C82.1787 14.1959 82.0871 14.2773 81.9548 14.3893C81.8326 14.5012 81.6647 14.6132 81.4509 14.7252C81.2372 14.8371 80.9878 14.9338 80.7028 15.0153C80.4178 15.1069 80.1023 15.1527 79.7562 15.1527C79.3694 15.1527 78.9674 15.0967 78.55 14.9847C78.1429 14.8626 77.7714 14.659 77.4355 14.374C77.0996 14.0788 76.8197 13.687 76.5958 13.1984C76.382 12.6996 76.2751 12.0787 76.2751 11.3357C76.2751 11.0711 76.2904 10.7708 76.3209 10.4349C76.3616 10.0888 76.438 9.73768 76.5499 9.38143C76.6619 9.015 76.8095 8.65875 76.9927 8.31268C77.1861 7.95643 77.4406 7.64089 77.7561 7.36607C78.0716 7.09125 78.4483 6.87241 78.8859 6.70955C79.3338 6.53652 79.8631 6.45 80.4738 6.45C80.9725 6.45 81.4 6.51107 81.7563 6.63321C82.1227 6.74518 82.423 6.90295 82.6571 7.10652C82.8912 7.29991 83.0642 7.52893 83.1762 7.79357C83.2983 8.05821 83.3594 8.34321 83.3594 8.64857C83.3594 9.19821 83.1864 9.60536 82.8403 9.87C82.4942 10.1245 82.0057 10.2517 81.3746 10.2517C81.2219 10.2517 81.115 10.2415 81.054 10.2212C81.0031 10.1906 80.9776 10.1296 80.9776 10.0379C80.9776 9.79366 80.9725 9.57482 80.9624 9.38143C80.9522 9.18803 80.9216 9.02518 80.8708 8.89286C80.83 8.76053 80.7639 8.65875 80.6723 8.5875C80.5807 8.51625 80.4483 8.48062 80.2753 8.48062C79.9598 8.48062 79.7053 8.58241 79.5119 8.78598C79.3287 8.98955 79.1862 9.23893 79.0844 9.53411C78.9928 9.81911 78.9317 10.1143 78.9012 10.4196C78.8808 10.725 78.8707 10.9795 78.8707 11.183C78.8707 11.9057 78.9826 12.4096 79.2066 12.6946C79.4407 12.9796 79.8071 13.1221 80.3058 13.1221ZM87.6315 15.1527C86.9292 15.1527 86.344 15.056 85.8757 14.8626C85.4177 14.659 85.0513 14.3842 84.7765 14.0381C84.5016 13.6921 84.3082 13.29 84.1963 12.832C84.0843 12.3637 84.0283 11.865 84.0283 11.3357C84.0283 10.725 84.0996 10.1296 84.2421 9.54937C84.3948 8.95902 84.6492 8.43482 85.0055 7.97678C85.3617 7.51875 85.8299 7.15232 86.4101 6.8775C87.0005 6.5925 87.7333 6.45 88.6087 6.45C89.8912 6.45 90.8073 6.76553 91.3569 7.39661C91.9167 8.0175 92.1966 8.89286 92.1966 10.0227C92.1966 10.3382 92.1712 10.6894 92.1203 11.0762C92.0796 11.4528 91.9931 11.8294 91.8607 12.206C91.7386 12.5826 91.5656 12.949 91.3416 13.3053C91.1279 13.6615 90.8531 13.9771 90.5172 14.2519C90.1813 14.5267 89.7741 14.7455 89.2957 14.9084C88.8275 15.0713 88.2728 15.1527 87.6315 15.1527ZM88.3491 8.48062C87.9624 8.48062 87.6519 8.58241 87.4178 8.78598C87.1939 8.97937 87.0208 9.21857 86.8987 9.50357C86.7867 9.77839 86.7104 10.0736 86.6697 10.3891C86.6391 10.6945 86.6239 10.954 86.6239 11.1678C86.6239 11.8396 86.7307 12.3332 86.9445 12.6487C87.1582 12.9643 87.4636 13.1221 87.8606 13.1221C88.2168 13.1221 88.5069 13.0101 88.7308 12.7862C88.9649 12.5622 89.1431 12.2925 89.2652 11.977C89.3975 11.6614 89.484 11.3306 89.5248 10.9846C89.5757 10.6385 89.6011 10.3484 89.6011 10.1143C89.6011 9.60536 89.5044 9.20839 89.311 8.92339C89.1278 8.62821 88.8072 8.48062 88.3491 8.48062ZM95.9778 12.2518C95.9473 12.72 95.9117 13.1679 95.8709 13.5954C95.8302 14.0127 95.7997 14.3791 95.7793 14.6946C95.7692 14.8168 95.7437 14.8982 95.703 14.9389C95.6623 14.9796 95.5758 15 95.4434 15H94.8938C94.5783 15 94.3187 14.9695 94.1151 14.9084C93.9217 14.8371 93.764 14.7404 93.6418 14.6183C93.5299 14.4962 93.4484 14.3486 93.3975 14.1755C93.3568 13.9923 93.3365 13.7837 93.3365 13.5496C93.3365 13.3969 93.3416 13.1831 93.3517 12.9083C93.3721 12.6233 93.4026 12.2365 93.4434 11.7479C93.4841 11.2492 93.5299 10.6232 93.5808 9.87C93.6418 9.10661 93.7131 8.16509 93.7945 7.04544C93.8047 6.82152 93.8301 6.68919 93.8709 6.64848C93.9014 6.61794 93.9828 6.60268 94.1151 6.60268H94.7106C95.0159 6.60268 95.2653 6.6383 95.4587 6.70955C95.6521 6.7808 95.8099 6.87241 95.932 6.98437C96.0542 7.09634 96.1407 7.22866 96.1916 7.38134C96.2425 7.53402 96.273 7.69178 96.2832 7.85464C96.5784 7.305 96.9142 6.93348 97.2909 6.74009C97.6675 6.5467 98.1102 6.45 98.6192 6.45C98.894 6.45 99.1586 6.47545 99.4131 6.52634C99.6675 6.57723 99.8966 6.66375 100.1 6.78589C100.304 6.90803 100.477 7.07089 100.619 7.27446C100.762 7.46786 100.864 7.71723 100.925 8.02259C101.24 7.43223 101.586 7.02509 101.963 6.80116C102.339 6.56705 102.813 6.45 103.383 6.45C103.698 6.45 103.999 6.48562 104.284 6.55687C104.579 6.61794 104.833 6.72991 105.047 6.89277C105.261 7.05562 105.429 7.27955 105.551 7.56455C105.683 7.83937 105.749 8.18545 105.749 8.60277C105.749 8.9183 105.734 9.30509 105.703 9.76312C105.673 10.2212 105.637 10.7199 105.597 11.2594C105.556 11.7887 105.51 12.3383 105.459 12.9083C105.408 13.4681 105.368 14.0076 105.337 14.5267C105.327 14.6387 105.317 14.7252 105.306 14.7862C105.296 14.8473 105.276 14.8931 105.245 14.9237C105.225 14.9542 105.189 14.9746 105.139 14.9847C105.088 14.9949 105.016 15 104.925 15H104.436C104.11 15 103.846 14.9695 103.642 14.9084C103.439 14.8473 103.281 14.7608 103.169 14.6488C103.057 14.5369 102.976 14.3995 102.925 14.2366C102.884 14.0636 102.864 13.8702 102.864 13.6564C102.864 13.5241 102.869 13.3358 102.879 13.0915C102.899 12.8472 102.92 12.5826 102.94 12.2976C102.97 12.0126 102.996 11.7174 103.016 11.4121C103.047 11.1067 103.072 10.8268 103.093 10.5723C103.123 10.3077 103.144 10.0787 103.154 9.88527C103.174 9.69187 103.184 9.56464 103.184 9.50357C103.184 9.23893 103.128 9.00482 103.016 8.80125C102.915 8.59768 102.711 8.49589 102.406 8.49589C102.141 8.49589 101.912 8.58241 101.719 8.75545C101.525 8.92848 101.362 9.16768 101.23 9.47303C101.098 9.77839 100.991 10.1397 100.909 10.5571C100.828 10.9744 100.772 11.4273 100.741 11.9159C100.721 12.2314 100.696 12.5928 100.665 12.9999C100.635 13.4071 100.599 13.916 100.558 14.5267C100.548 14.6387 100.538 14.7252 100.528 14.7862C100.517 14.8473 100.497 14.8931 100.467 14.9237C100.446 14.9542 100.411 14.9746 100.36 14.9847C100.309 14.9949 100.238 15 100.146 15H99.6574C99.3317 15 99.067 14.9695 98.8634 14.9084C98.6599 14.8473 98.5021 14.7608 98.3901 14.6488C98.2782 14.5369 98.1967 14.3995 98.1459 14.2366C98.1051 14.0636 98.0848 13.8702 98.0848 13.6564C98.0848 13.4529 98.1 13.1577 98.1306 12.7709C98.1713 12.3739 98.2069 11.9668 98.2375 11.5495C98.2782 11.122 98.3138 10.7199 98.3443 10.3433C98.385 9.95652 98.4054 9.67661 98.4054 9.50357C98.4054 9.23893 98.3494 9.00482 98.2375 8.80125C98.1357 8.59768 97.9321 8.49589 97.6267 8.49589C97.3519 8.49589 97.1178 8.59768 96.9244 8.80125C96.731 9.00482 96.5682 9.27964 96.4359 9.62571C96.3137 9.96161 96.2119 10.3586 96.1305 10.8166C96.0592 11.2746 96.0084 11.753 95.9778 12.2518Z" fill="white"/>
<rect y="19.085" width="106.875" height="2.86272" fill="white"/>
<line x1="10.7895" y1="32.5902" x2="9.78371" y2="21.0941" stroke="white" stroke-width="1.43136"/>
<line x1="18.639" y1="21.0555" x2="17.6682" y2="32.1516" stroke="white" stroke-width="1.43136"/>
<line x1="89.037" y1="32.5902" x2="88.0313" y2="21.0941" stroke="white" stroke-width="1.43136"/>
<line x1="96.8868" y1="21.0555" x2="95.916" y2="32.1516" stroke="white" stroke-width="1.43136"/>
</svg>
